<svg xmlns="http://www.w3.org/2000/svg" viewBox="0 0 569.14 114.39"><defs><style>.cls-1{fill:none;stroke:#706f6f;stroke-miterlimit:10;}.cls-2{font-size:35.75px;}.cls-2,.cls-6{fill:#3c3c3b;}.cls-10,.cls-11,.cls-12,.cls-13,.cls-14,.cls-15,.cls-16,.cls-17,.cls-18,.cls-2,.cls-9{font-family:Quicksand-Regular, Quicksand;}.cls-3{letter-spacing:-0.02em;}.cls-4{letter-spacing:-0.07em;}.cls-5{letter-spacing:-0.06em;}.cls-6{font-size:13px;font-family:Quicksand-Bold, Quicksand;}.cls-7,.cls-8{font-weight:700;}.cls-18,.cls-8{letter-spacing:0.04em;}.cls-10{letter-spacing:-0.07em;}.cls-11{letter-spacing:-0.02em;}.cls-12{letter-spacing:-0.13em;}.cls-13{letter-spacing:-0.01em;}.cls-14{letter-spacing:-0.02em;}.cls-15{letter-spacing:-0.05em;}.cls-16{letter-spacing:-0.02em;}.cls-17{letter-spacing:-0.02em;}</style></defs><title>Asset 7</title><g id="Layer_2" data-name="Layer 2"><g id="Layer_1-2" data-name="Layer 1"><polygon class="cls-1" points="546.76 113.23 22.43 112.58 1.1 1.16 568.03 1.16 546.76 113.23"/><path class="cls-1" d="M547.26,113.89l-525.33-.66L.6.5H568.53Zm-524.33-2,523.33.66L567.53,1.81H1.6Z"/><text class="cls-2" transform="translate(196.38 61.78)"><tspan class="cls-3">J</tspan><tspan x="20.34" y="0">A</tspan><tspan class="cls-4" x="43.44" y="0">P</tspan><tspan x="61.78" y="0">A</tspan><tspan class="cls-5" x="84.88" y="0">N</tspan><tspan x="110.12" y="0">ESE</tspan></text><text class="cls-6" transform="translate(129.18 80.34)"><tspan class="cls-7">S</tspan><tspan class="cls-8" x="8.67" y="0">l</tspan><tspan class="cls-7" x="12.49" y="0">eek Design</tspan><tspan class="cls-9" x="83.37" y="0" xml:space="preserve">  - </tspan><tspan class="cls-10" x="100.37" y="0">F</tspan><tspan class="cls-11" x="107.29" y="0">o</tspan><tspan class="cls-9" x="115.2" y="0">ur </tspan><tspan class="cls-12" x="132.78" y="0">T</tspan><tspan class="cls-9" x="139.45" y="0">a</tspan><tspan class="cls-13" x="147.5" y="0">p</tspan><tspan class="cls-14" x="155.95" y="0">e</tspan><tspan class="cls-15" x="163.59" y="0">r</tspan><tspan class="cls-9" x="168.65" y="0">ed Si</tspan><tspan class="cls-16" x="201.37" y="0">d</tspan><tspan class="cls-9" x="209.75" y="0">es - No H</tspan><tspan class="cls-13" x="268.43" y="0">a</tspan><tspan class="cls-17" x="276.35" y="0">n</tspan><tspan class="cls-9" x="284.06" y="0">d</tspan><tspan class="cls-18" x="292.64" y="0">l</tspan><tspan class="cls-9" x="296.46" y="0">es</tspan></text></g></g></svg>